<?xml version="1.0" standalone="no"?>
<!DOCTYPE svg PUBLIC "-//W3C//DTD SVG 20010904//EN"
 "http://www.w3.org/TR/2001/REC-SVG-20010904/DTD/svg10.dtd">
<svg version="1.0" xmlns="http://www.w3.org/2000/svg"
 width="436.000000pt" height="451.000000pt" viewBox="0 0 436.000000 451.000000"
 preserveAspectRatio="xMidYMid meet">

<g transform="translate(0.000000,451.000000) scale(0.100000,-0.100000)"
fill="#000000" stroke="none">
<path d="M650 3825 c0 -15 63 -128 95 -171 101 -134 199 -214 520 -426 351
-232 464 -335 540 -493 56 -118 68 -180 62 -340 -5 -150 -26 -246 -87 -402
-16 -42 -28 -78 -27 -79 1 -2 32 20 67 48 93 72 188 126 272 155 64 21 86 24
173 21 104 -5 159 -22 243 -78 l33 -22 -3 733 c-3 722 -3 735 -24 780 -25 54
-74 112 -128 151 l-39 28 579 -1 c543 0 577 -1 554 -17 -50 -33 -98 -93 -109
-137 -16 -63 -16 -2598 0 -2661 8 -31 28 -63 61 -99 49 -54 161 -135 185 -135
11 0 13 312 11 1573 l-3 1572 -1487 3 c-819 1 -1488 0 -1488 -3z m1630 -410
l0 -315 -30 0 -30 0 0 285 0 285 -65 0 -65 0 0 -285 0 -285 -30 0 -30 0 0 152
0 152 -82 -89 c-45 -50 -115 -124 -155 -165 l-72 -75 -22 22 -23 22 123 131
123 130 -121 0 -121 0 0 30 0 30 117 0 118 0 -120 121 -120 120 25 21 25 20
146 -151 c81 -83 149 -151 153 -151 3 0 6 70 6 155 l0 155 125 0 125 0 0 -315z"/>
<path d="M2665 3587 c-60 -60 -59 -44 -62 -854 l-4 -743 63 -72 c35 -40 79
-94 97 -120 19 -27 36 -48 38 -48 2 0 3 421 3 935 l0 935 -51 0 c-44 0 -55 -4
-84 -33z"/>
<path d="M731 3100 c1 -234 4 -436 8 -450 5 -16 13 -24 24 -22 14 2 17 -6 18
-50 2 -49 2 -50 9 -18 5 23 8 28 9 13 1 -29 35 -63 61 -63 11 0 20 -6 20 -13
0 -16 52 -67 68 -67 7 0 12 -6 12 -13 0 -8 11 -24 25 -37 14 -13 25 -32 25
-42 0 -10 6 -18 13 -19 13 -1 97 -103 97 -119 0 -5 6 -10 13 -10 7 0 24 -18
37 -40 17 -27 32 -40 48 -40 29 0 62 -34 62 -64 0 -18 10 -29 38 -43 26 -14
39 -29 43 -49 4 -16 7 -23 8 -16 0 6 11 12 24 12 21 0 47 -36 47 -67 0 -7 8
-13 19 -13 10 0 21 -9 24 -20 3 -11 12 -20 21 -20 9 0 16 -8 16 -20 0 -11 7
-20 15 -20 8 0 15 -6 15 -13 0 -7 12 -24 26 -36 21 -18 24 -25 13 -32 -7 -4
-10 -11 -7 -15 4 -3 14 1 23 10 12 12 13 16 3 16 -10 0 -9 3 2 10 8 5 11 10 6
10 -5 0 -4 6 2 13 17 21 43 122 47 189 3 34 7 75 10 89 15 68 -44 421 -76 454
-5 5 -9 17 -9 26 0 10 -25 68 -56 129 -49 99 -67 123 -152 209 -54 54 -169
156 -257 228 -218 178 -291 255 -362 388 l-33 60 1 -425z m894 -1240 c3 -5 1
-10 -4 -10 -6 0 -11 5 -11 10 0 6 2 10 4 10 3 0 8 -4 11 -10z m-4 -73 c-6 -8
-7 -18 -3 -22 4 -5 1 -5 -6 -1 -10 6 -10 11 -1 22 6 8 14 14 16 14 3 0 0 -6
-6 -13z"/>
<path d="M762 2560 c0 -14 2 -19 5 -12 2 6 2 18 0 25 -3 6 -5 1 -5 -13z"/>
<path d="M945 2377 c-4 -10 -5 -21 -1 -24 10 -10 18 4 13 24 -4 17 -4 17 -12
0z"/>
<path d="M1240 2040 c0 -5 5 -10 11 -10 5 0 7 5 4 10 -3 6 -8 10 -11 10 -2 0
-4 -4 -4 -10z"/>
<path d="M1960 1861 c0 -4 -11 -6 -25 -3 -14 2 -25 0 -25 -4 0 -5 -14 -10 -31
-11 -18 -1 -40 -10 -50 -19 -11 -10 -19 -14 -19 -10 0 4 -29 -9 -65 -29 -36
-19 -65 -33 -65 -30 0 3 -10 -5 -22 -17 -13 -13 -23 -32 -23 -43 0 -11 10 -24
23 -30 24 -11 29 -31 10 -38 -7 -2 -9 -8 -5 -13 4 -5 12 -3 16 4 6 10 18 3 44
-23 36 -36 48 -65 26 -65 -5 0 -7 -4 -4 -10 3 -5 15 -10 27 -10 11 0 22 -8 25
-20 3 -11 14 -20 24 -20 11 0 19 -4 19 -9 0 -17 61 -71 81 -71 14 0 19 7 20
28 l1 27 7 -25 c5 -17 2 -29 -8 -37 -14 -10 -14 -12 2 -18 11 -5 17 -19 18
-44 1 -20 5 11 10 69 5 64 18 138 34 190 15 47 27 93 28 102 1 9 5 15 8 12 4
-2 15 9 25 24 25 44 90 82 139 82 83 0 146 -72 187 -216 19 -67 22 -104 23
-244 0 -168 -7 -268 -20 -290 -4 -6 -4 -14 -1 -17 3 -3 0 -13 -7 -22 -11 -14
-10 -14 6 -2 56 44 114 296 133 577 l7 101 -37 29 c-131 105 -267 154 -429
154 -59 0 -107 -4 -107 -9z m-230 -126 c0 -12 -19 -12 -23 0 -4 9 -1 12 9 8 7
-3 14 -7 14 -8z m-35 -4 c7 -12 -12 -24 -25 -16 -11 7 -4 25 10 25 5 0 11 -4
15 -9z"/>
<path d="M2586 1580 c-3 -25 -10 -90 -16 -145 -20 -186 -62 -379 -101 -472
-15 -36 -16 -43 -3 -54 8 -6 14 -16 14 -22 0 -6 -6 -2 -14 9 -8 10 -16 17 -18
14 -27 -41 -52 -105 -27 -70 9 12 10 11 6 -7 -4 -19 -1 -23 19 -23 17 0 22 -4
17 -15 -3 -10 0 -15 8 -13 8 2 13 -3 11 -10 -2 -10 19 -13 94 -11 91 1 98 3
137 33 22 17 51 51 64 75 22 42 23 53 23 261 l0 217 -69 99 c-38 54 -85 117
-104 139 l-35 40 -6 -45z m-123 -704 c4 -10 1 -13 -8 -9 -8 3 -12 9 -9 14 7
12 11 11 17 -5z m-3 -30 c0 -3 -4 -8 -10 -11 -5 -3 -10 -1 -10 4 0 6 5 11 10
11 6 0 10 -2 10 -4z m50 -40 c0 -11 -19 -15 -25 -6 -3 5 1 10 9 10 9 0 16 -2
16 -4z"/>
<path d="M1920 1330 c0 -5 4 -10 9 -10 6 0 13 5 16 10 3 6 -1 10 -9 10 -9 0
-16 -4 -16 -10z"/>
<path d="M1932 1250 c0 -14 2 -19 5 -12 2 6 2 18 0 25 -3 6 -5 1 -5 -13z"/>
<path d="M1951 1244 c0 -11 3 -14 6 -6 3 7 2 16 -1 19 -3 4 -6 -2 -5 -13z"/>
</g>
</svg>
