<?xml version="1.0" standalone="no"?>
<!DOCTYPE svg PUBLIC "-//W3C//DTD SVG 20010904//EN"
 "http://www.w3.org/TR/2001/REC-SVG-20010904/DTD/svg10.dtd">
<svg version="1.0" xmlns="http://www.w3.org/2000/svg"
 width="1080.000000pt" height="1080.000000pt" viewBox="0 0 1080.000000 1080.000000"
 preserveAspectRatio="xMidYMid meet">

<g transform="translate(0.000000,1080.000000) scale(0.100000,-0.100000)"
fill="#000000" stroke="none">
<path d="M2125 9201 c-11 -5 -29 -19 -40 -31 -19 -21 -20 -39 -23 -334 -4
-347 0 -375 51 -406 29 -18 51 -20 208 -20 193 0 259 -9 327 -43 60 -29 134
-97 165 -150 53 -90 57 -124 57 -478 l0 -327 -32 -13 c-362 -143 -682 -311
-945 -495 -110 -76 -131 -101 -113 -135 13 -24 223 -130 428 -215 145 -61 554
-202 630 -219 l32 -7 0 -69 c0 -38 -2 -69 -5 -69 -18 0 -445 138 -554 179
-225 86 -471 199 -643 297 l-47 27 -56 -47 c-75 -64 -236 -239 -307 -334 -347
-459 -442 -990 -267 -1488 65 -184 188 -398 318 -554 138 -165 321 -340 356
-340 12 0 90 33 171 74 267 133 543 242 853 336 90 28 168 50 173 50 5 0 8
-30 6 -67 l-3 -67 -35 -10 c-101 -27 -470 -154 -585 -201 -208 -85 -402 -180
-414 -203 -8 -15 -8 -28 -1 -44 21 -45 407 -281 640 -391 197 -93 531 -227
565 -227 9 0 41 -54 79 -135 250 -524 640 -925 1153 -1185 558 -282 1253 -349
1843 -176 669 196 1226 699 1485 1345 l42 104 149 52 c430 151 783 326 1114
552 134 92 131 96 -150 224 -353 161 -740 287 -1185 388 -244 56 -364 76 -374
65 -4 -5 -27 -67 -50 -139 -112 -345 -274 -652 -474 -900 -132 -164 -355 -360
-521 -457 -48 -29 -62 -63 -29 -75 22 -8 351 30 568 66 94 15 172 27 174 25 7
-6 -100 -133 -159 -188 -168 -154 -371 -258 -596 -301 -108 -22 -396 -25 -494
-6 -96 19 -245 69 -325 109 -158 79 -323 216 -420 347 -73 99 -73 98 -8 69
121 -54 270 -98 379 -109 103 -12 94 -97 94 860 0 744 -2 835 -16 849 -11 11
-35 16 -82 16 -94 0 -496 -19 -559 -26 l-53 -5 0 69 0 69 218 11 c119 7 269
12 332 12 89 0 121 4 138 16 l22 15 0 548 c0 509 -1 549 -17 563 -15 12 -80
17 -328 27 -170 7 -322 15 -337 18 -27 5 -28 7 -28 71 l0 65 73 -7 c169 -15
599 -26 618 -16 19 10 19 31 19 900 l0 890 -29 0 c-58 0 -209 -32 -308 -65
-106 -35 -213 -86 -298 -139 -27 -18 -56 -36 -63 -40 -11 -6 -13 43 -10 271 3
263 5 281 26 335 26 64 96 148 155 185 81 51 109 56 345 62 l224 6 29 33 29
32 0 325 c0 212 -4 332 -11 348 -6 13 -23 31 -39 40 -26 16 -153 17 -1632 16
-881 0 -1612 -4 -1623 -8z m3095 -380 l0 -180 -432 -4 c-366 -3 -443 -7 -497
-21 -232 -62 -430 -228 -527 -442 l-26 -59 -31 65 c-90 184 -230 320 -403 393
-141 60 -144 60 -606 64 l-428 4 0 180 0 179 1475 0 1475 0 0 -179z m-2045
-286 c195 -54 360 -189 448 -369 77 -156 71 56 77 -2401 5 -2028 7 -2207 23
-2293 104 -559 414 -1010 892 -1297 464 -279 1079 -338 1605 -154 447 157 815
480 1035 909 44 86 61 111 81 116 14 4 27 4 30 1 3 -3 -20 -56 -52 -119 -282
-550 -813 -953 -1429 -1081 -315 -66 -692 -59 -1020 18 -833 197 -1501 856
-1710 1690 -74 294 -68 111 -75 2470 -5 2031 -6 2122 -24 2170 -50 135 -144
259 -246 325 -28 18 -50 35 -50 37 0 13 357 -7 415 -22z m1555 21 c0 -2 -22
-18 -50 -36 -119 -76 -230 -238 -259 -378 -8 -38 -11 -712 -11 -2355 0 -1972
2 -2315 15 -2391 51 -309 190 -573 416 -791 193 -187 424 -307 699 -366 89
-19 137 -22 310 -23 221 0 310 12 486 69 311 101 598 338 770 636 40 69 75
102 91 85 9 -8 -73 -152 -142 -251 -286 -407 -706 -665 -1203 -740 -208 -32
-516 -16 -727 36 -624 155 -1133 664 -1289 1288 -53 209 -51 108 -51 2456 l0
2190 29 89 c81 248 306 438 561 475 60 9 355 15 355 7z"/>
<path d="M6310 9197 c-14 -7 -33 -28 -42 -47 -16 -31 -18 -70 -18 -338 0 -334
4 -358 59 -386 24 -13 67 -16 215 -16 102 0 209 -5 238 -11 159 -34 282 -163
308 -325 6 -32 10 -137 10 -231 0 -141 -3 -173 -14 -173 -8 0 -57 9 -111 20
-293 60 -767 125 -797 109 -11 -6 -18 -21 -18 -37 0 -23 13 -36 81 -81 425
-281 766 -780 940 -1376 17 -61 36 -116 42 -122 14 -19 51 -16 214 18 549 113
1031 272 1444 475 162 80 169 84 169 113 0 26 -11 38 -82 90 -264 193 -726
428 -1111 566 l-79 28 4 306 c5 339 8 357 72 454 44 66 110 119 185 149 50 19
81 22 278 27 l223 6 27 28 28 27 0 341 0 341 -33 29 -32 29 -1088 0 c-849 0
-1092 -3 -1112 -13z m2060 -376 l0 -179 -237 -5 c-258 -6 -292 -11 -398 -62
-120 -57 -215 -149 -274 -265 l-28 -54 -23 44 c-75 146 -197 252 -357 307 -75
26 -87 27 -335 31 l-258 4 0 179 0 179 955 0 955 0 0 -179z m-1253 -330 c51
-25 146 -112 182 -165 15 -23 41 -72 57 -111 l29 -70 3 -277 c2 -153 1 -278
-3 -278 -3 0 -26 5 -51 11 l-44 11 0 227 c0 264 -10 327 -70 448 -40 81 -111
166 -190 226 l-35 27 41 -14 c23 -8 59 -23 81 -35z m656 -9 c-102 -82 -184
-222 -208 -359 -10 -53 -14 -161 -15 -330 0 -139 -2 -253 -5 -253 -3 0 -22 7
-41 15 l-36 15 4 282 c4 275 5 285 29 350 49 127 123 216 233 282 79 47 100
46 39 -2z"/>
<path d="M5470 6912 c0 -731 2 -892 13 -901 25 -20 629 9 1017 49 142 15 556
69 567 74 1 1 -7 33 -18 71 -184 666 -554 1185 -1024 1436 -154 82 -329 138
-487 154 l-68 7 0 -890z"/>
<path d="M8965 6581 c-431 -220 -905 -379 -1528 -511 -75 -16 -146 -34 -157
-40 -37 -20 -38 -47 -5 -275 35 -244 30 -683 -10 -935 -9 -52 -18 -127 -21
-166 -6 -67 -5 -71 19 -91 15 -12 63 -27 114 -37 599 -118 1148 -300 1605
-532 133 -67 149 -71 186 -51 34 20 226 211 308 310 520 620 558 1370 100
2012 -65 91 -139 178 -251 293 -86 90 -129 123 -157 121 -7 0 -98 -44 -203
-98z"/>
<path d="M6880 5974 c-326 -49 -761 -86 -1168 -100 -165 -5 -216 -10 -228 -21
-12 -12 -14 -99 -14 -563 l0 -550 23 -14 c16 -10 79 -15 244 -20 374 -10 769
-43 1106 -92 210 -30 223 -30 241 -1 14 22 36 139 56 296 33 249 28 641 -11
905 -21 146 -28 170 -55 180 -19 7 -7 9 -194 -20z"/>
<path d="M5487 4566 c-16 -16 -17 -80 -17 -857 l0 -839 25 -12 c32 -14 169 8
296 48 500 156 948 647 1182 1294 67 185 71 207 52 236 -8 13 -19 24 -24 24
-4 0 -88 11 -187 25 -347 48 -707 77 -1119 91 -172 6 -193 5 -208 -10z"/>
</g>
</svg>
